<svg xmlns="http://www.w3.org/2000/svg" width="1654" height="1654"><path d="M784.5 24.642c-2.2.169-10.75.794-19 1.389-161.965 11.691-320.2 75.022-446.928 178.875-90.667 74.301-164.448 167.715-214.843 272.011C57.95 571.659 31.856 671.64 25.022 778.483c-1.319 20.62-1.315 74.496.006 95.034 8.96 139.241 50.044 266.105 124.327 383.908l10.041 15.925 2.052-2.847c11.953-16.581 23.953-30.694 41.504-48.812 20.77-21.44 34.337-31.234 62.548-45.154 21.712-10.712 36.589-16.499 56.774-22.082 8.874-2.455 16.423-4.799 16.776-5.209.353-.41 1.414-8.171 2.357-17.246 2.157-20.75 3.925-32.063 7.58-48.5 13.175-59.261 42.695-115.476 82.937-157.938C478.17 876.764 531.629 847.713 595 836.94c17.737-3.015 55.094-3.798 74.354-1.559C723.79 841.71 774.933 862.928 817 896.634c9.329 7.475 29.347 27.087 44.067 43.175l9.433 10.309 22.5-10.98c50.699-24.739 83.105-32.356 137.5-32.322 38.18.024 62.594 3.538 91.5 13.168 46.143 15.372 86.931 40.505 123.341 76.001 22.349 21.789 39.771 44.213 55.627 71.599l8.467 14.626 17.033-.855c9.367-.47 28.957-.816 43.532-.768 21.98.072 28.949.462 40.856 2.288 41.642 6.385 78.565 21.038 112.849 44.784 10.297 7.133 24.632 18.523 30.997 24.631l4.202 4.032 3.62-7.911c6.588-14.395 18.349-44.851 25.444-65.887 20.233-59.989 32.881-119.388 38.97-183.024 4.8-50.166 4.03-114.91-1.973-165.966-27.437-233.313-154.112-441.171-349.117-572.855-119.365-80.605-254.032-126.237-400.331-135.651-14.143-.91-80.494-1.191-91.017-.386M687.127 155.5c-8.261 2.573-13.127 9.504-13.127 18.701 0 15.891 18.797 24.414 31.069 14.087 8.109-6.822 9.123-19.889 2.143-27.608-4.475-4.948-13.421-7.256-20.085-5.18M391.384 313.913c-11.361 5.159-14.457 20.24-6.108 29.749 3.973 4.525 8.191 6.338 14.742 6.338 5.721 0 9.236-1.51 13.179-5.661 5.715-6.017 7.172-13.777 3.913-20.839-4.584-9.933-15.778-14.104-25.726-9.587m202.624 64.068c-8.423 19.281-15.809 35.65-16.412 36.376-.603.725-16.958 8.225-36.346 16.666-19.388 8.44-35.238 15.601-35.224 15.912.015.311 16.008 7.515 35.54 16.01 19.532 8.495 35.876 15.92 36.32 16.5.443.58 7.717 16.915 16.165 36.3 8.448 19.385 15.679 34.91 16.07 34.5.391-.41 7.657-16.649 16.147-36.087l15.436-35.343 35.398-15.476c19.469-8.511 35.713-15.782 36.098-16.157.385-.375-15.14-7.598-34.5-16.051-19.36-8.452-35.744-15.877-36.408-16.499-.665-.623-7.996-16.653-16.292-35.623-8.295-18.97-15.441-34.85-15.879-35.288-.439-.439-7.689 14.979-16.113 34.26m730.978-7.97c-12.257 2.084-19.274 15.271-14.096 26.489 4.65 10.075 15.937 14.183 25.821 9.398 11.384-5.511 14.393-20.016 6.11-29.449-4.921-5.605-10.626-7.664-17.835-6.438M1062.84 512.887c-16.668 10.57-7.994 36.534 11.661 34.904 15.871-1.316 23.236-20.063 12.628-32.147-5.452-6.213-16.808-7.502-24.289-2.757m-833.829 77.35c-4.6 10.595-9.381 21.331-10.626 23.858l-2.262 4.595-23.701 10.365c-16.368 7.158-23.272 10.632-22.312 11.225.764.473 11.515 5.269 23.89 10.658l22.5 9.798 10.388 23.632c5.713 12.998 10.663 23.622 11 23.61.336-.012 5.112-10.425 10.612-23.141 6.157-14.234 10.769-23.597 12-24.364 1.1-.685 11.675-5.422 23.5-10.527 11.825-5.106 21.84-9.569 22.255-9.919.415-.35-9.935-5.282-23-10.96-13.065-5.677-23.894-10.442-24.065-10.588-.17-.146-4.817-10.551-10.325-23.122-5.508-12.571-10.347-23.2-10.753-23.62-.405-.419-4.501 7.906-9.101 18.5m1098.098 48.513c-8.35 19.112-15.509 35.28-15.909 35.927-.4.647-16.488 8.072-35.752 16.5-19.263 8.428-35.047 15.773-35.075 16.323-.029.55 15.836 7.967 35.256 16.483l35.309 15.482 15.664 35.768c8.615 19.672 15.943 35.767 16.285 35.767.341 0 7.67-16.087 16.287-35.75l15.667-35.75 35.6-15.604c19.581-8.583 35.834-15.837 36.118-16.121.486-.487-7.033-3.9-52.935-24.027l-18.877-8.276-15.611-35.736c-8.587-19.655-15.889-35.736-16.229-35.736-.339 0-7.448 15.638-15.798 34.75m-812.607 66.825C507.53 709.211 504 715.156 504 723.264c0 13.994 15.475 23.293 27.405 16.47 9.683-5.539 13.161-15.801 8.57-25.286-3.192-6.593-9.442-10.45-16.921-10.442-3.079.004-6.89.703-8.552 1.569m-398.631 67.431c-13.051 6.896-14.215 23.528-2.284 32.628 3.327 2.538 4.577 2.866 10.913 2.866s7.586-.328 10.913-2.866c6.92-5.278 9.707-12.759 7.63-20.476-3.084-11.451-16.848-17.607-27.172-12.152M610.5 854.104c-81.977 9.829-157.862 58.581-202.447 130.06-19.955 31.993-35.578 71.484-43.056 108.836-3.355 16.758-4.673 28.104-6.316 54.377l-1.181 18.877-18.5 4.351c-30.742 7.231-49.359 13.754-69.845 24.472-24.767 12.958-45.768 29.357-66.954 52.28-8.671 9.381-24.443 29.787-28.895 37.384l-2.5 4.266 5.587 7.746c98.374 136.409 238.035 239.141 397.107 292.103 68.142 22.687 134.407 35.478 208.351 40.217 24.128 1.546 88.58.683 112.149-1.503 106.386-9.865 198.961-36.055 292.146-82.651 153.935-76.972 280.256-202.948 356.813-355.837l8.116-16.209-5.191-4.686c-22.377-20.203-50.438-38.26-77.212-49.687-25.136-10.727-44.365-15.652-68.672-17.588-17.513-1.394-70.85-.655-85.753 1.188l-10.253 1.268-3.094-2.934c-1.702-1.614-6.953-9.459-11.668-17.434-27.106-45.843-54.817-76.989-92.583-104.058-32.981-23.641-64.448-37.917-108.701-49.316-28.143-7.249-43.365-8.608-74.948-6.692-48.883 2.966-77.631 12.137-127.432 40.653-9.312 5.333-17.412 9.745-18 9.804-.587.06-8.087-7.541-16.665-16.891-36.792-40.102-60.566-59.293-94.531-76.311-22.63-11.338-51.429-20.501-77.901-24.785-11.89-1.925-55.763-2.763-67.971-1.3m41.5 57.49c-30.395 3.565-52.456 10.058-79.5 23.4-27.301 13.469-48.603 29.106-71.022 52.131-37.142 38.15-60.462 82.532-71.952 136.943-5.823 27.57-4.323 37.196 5.572 35.765 3.636-.526 5.519-5.139 9.322-22.833 13.24-61.607 33.129-100.565 70.518-138.13 27.539-27.67 56.886-45.878 93.062-57.74 16.988-5.57 26.906-7.783 49.622-11.073 11.533-1.67 20.303-3.433 21.729-4.368 4.357-2.854 3.972-10.27-.647-12.495-2.73-1.316-20.202-2.362-26.704-1.6" fill="undefined" fill-rule="evenodd"/></svg>