<svg xmlns="http://www.w3.org/2000/svg" width="451.047869" height="451.047869" viewBox="0 0 422.85738 422.85738"><circle cx="360" cy="360" r="210.85001" fill="#fff" transform="translate(-148.57131 -148.57129)"/><path fill="#0c507e" fill-rule="evenodd" d="M211.42772 0C94.65883.00046-.00064 94.6608-.00002 211.42969c.0579 41.85264 12.5359 82.74658 35.85352 117.50195 2.44507-3.62448 5.34367-7.15677 8.91797-10.99219 6.69214-7.24936 9.54664-9.57015 16.5957-13.33984 4.63988-2.51313 11.5096-5.41237 15.16797-6.3789l6.69336-1.83594.71289-6.57422c3.83683-37.60024 30.16038-68.62642 63.62109-75.19922 25.51936-5.02625 52.1987 3.86552 69.6875 23.19727l5.53125 6.08984 6.8711-3.38281c11.15357-5.6062 21.94991-8.11914 34.79882-8.11914 12.22431 0 20.34502 1.5459 30.16016 5.60546 17.22111 7.24942 31.67458 19.91173 41.13281 36.1504l2.58789 4.54296 10.35157-.58007c21.57245-1.17263 39.79233 5.42774 55.36132 20.03906 12.33526-27.25187 18.74731-56.81108 18.8125-86.72461C422.85802 94.66004 328.19737-.00061 211.42772 0zm-35.28516 34.57227a5 5 0 0 1 5 5 5 5 0 0 1-5 5 5 5 0 0 1-5-5 5 5 0 0 1 5-5zM98.99803 76.00195a5 5 0 0 1 5 5 5 5 0 0 1-5 5 5 5 0 0 1-5-5 5 5 0 0 1 5-5zm55.28711 8l8.34961 19.07813 19.07812 8.34961-19.07812 8.34961-8.34961 19.07812-8.34961-19.07812-19.07813-8.34961 19.07813-8.34961 8.34961-19.07813zm189.03711 7.13868a5 5 0 0 1 5 5 5 5 0 0 1-5 5 5 5 0 0 1-5-5 5 5 0 0 1 5-5zm-67.17578 36.87109a5 5 0 0 1 5 5 5 5 0 0 1-5 5 5 5 0 0 1-5-5 5 5 0 0 1 5-5zM56.42772 144.00195l5.52343 12.61915 12.61914 5.52343-12.61914 5.52149-5.52343 12.61914-5.52149-12.61914-12.61914-5.52149 12.61914-5.52343 5.52149-12.61915zm290.71484 8.57032l8.34961 19.07812L374.57029 180l-19.07812 8.34961-8.34961 19.07813-8.34961-19.07813L319.71483 180l19.07812-8.34961 8.34961-19.07812zM131.4199 179.02539a5 5 0 0 1 5 5 5 5 0 0 1-5 5 5 5 0 0 1-5-5 5 5 0 0 1 5-5zM26.63865 196.70313a5 5 0 0 1 5 5 5 5 0 0 1-5 5 5 5 0 0 1-5-5 5 5 0 0 1 5-5zm136.32422 21.36914c-18.37234-.21076-36.54207 7.15282-50.82422 20.89648-13.29505 12.75895-22.66363 33.82933-23.73437 52.8711l-.53711 8.79687-6.78125 1.54688c-14.3658 3.2864-25.87504 10.14891-35.51172 21.36132-2.62397 3.06397-4.8815 6.12945-6.87109 9.3711 39.51913 56.28922 103.94796 89.83869 172.72461 89.9414 81.40523-.11199 155.51595-46.9501 190.55273-120.42968-8.20022-7.80818-17.98729-13.66764-28.9375-17.0625-5.62139-1.73985-9.27994-2.12791-19.00586-2.22461-6.60291 0-13.29623.2911-14.90234.67773-2.76609.67661-2.94432.48379-7.04883-6.76562-10.70743-18.55847-28.6416-32.47774-48.89648-37.89063-6.95984-1.83656-9.68164-3.06436-21.01368-2.67773-14.63348.4833-22.61904 3.64496-34.21875 10.12109l-5.97851 3.47852-6.60352-7.25c-11.51049-12.75895-24.35972-20.29755-39.70703-23.39063-4.21605-.86993-8.46531-1.32246-12.70508-1.37109zm5.92383 15.58008c3.83683.19332 4.46289.48376 4.46289 2.12695 0 1.6432-.80398 2.02942-5.80078 2.60937-22.75328 2.41647-41.49089 15.85119-51.2168 36.63282-2.58763 5.50955-4.64059 12.47067-6.33593 21.36328-.35691 1.83651-1.0705 2.70508-2.23047 2.70508-2.4092 0-2.31925-4.05869.0898-13.53125 6.33523-25.13127 26.59051-45.42987 50.77149-50.7461 3.21222-.77327 7.85059-1.25685 10.25976-1.16015z"/></svg>